<?xml version="1.0" encoding="UTF-8"?>
<svg width="512px" height="488px" viewBox="0 0 512 488" version="1.1" xmlns="http://www.w3.org/2000/svg" xmlns:xlink="http://www.w3.org/1999/xlink">
    <!-- Generator: Sketch 42 (36781) - http://www.bohemiancoding.com/sketch -->
    <title>photo-camera</title>
    <desc>Created with Sketch.</desc>
    <defs></defs>
    <g id="Page-1" stroke="none" stroke-width="1" fill="none" fill-rule="evenodd">
        <g id="photo-camera" fill-rule="nonzero">
            <path d="M488.02,137.896 L362.115,137.896 L342.585,122.285 C340.885,120.874 338.924,119.804 336.725,119.016 C334.539,118.256 332.319,117.895 330.115,117.895 L194.23,117.895 C192.021,117.895 189.809,118.256 187.635,119.016 C185.436,119.807 183.455,120.877 181.724,122.285 L162.258,137.896 L36.321,137.896 C23.147,137.896 12.341,148.676 12.341,161.876 L12.341,463.677 C12.341,476.876 23.147,487.636 36.321,487.636 L488.02,487.636 C501.219,487.636 511.999,476.876 511.999,463.677 L511.999,161.875 C512,148.676 501.22,137.896 488.02,137.896 Z" id="Shape" fill="#E6EAEE"></path>
            <rect id="Rectangle-path" fill="#F96932" x="12.339" y="193.286" width="499.661" height="238.925"></rect>
            <polygon id="Shape" fill="#5D6D7E" points="362.849 412.535 397.041 355.204 412.25 380.225 392.095 413.994"></polygon>
            <path d="M413.074,312.805 C413.074,396.125 345.508,463.676 262.17,463.676 C178.819,463.676 111.281,396.125 111.281,312.805 C111.281,229.444 178.821,161.875 262.17,161.875 C345.51,161.875 413.074,229.444 413.074,312.805 Z" id="Shape" fill="#34495E"></path>
            <path d="M397.115,312.805 C397.115,387.296 336.671,447.694 262.17,447.694 C187.661,447.694 127.261,387.293 127.261,312.805 C127.261,238.255 187.662,177.844 262.17,177.844 C336.671,177.844 397.115,238.255 397.115,312.805 Z" id="Shape" fill="#52BFEB"></path>
            <path d="M386.634,312.805 C386.634,381.505 330.903,437.226 262.169,437.226 C193.435,437.226 137.715,381.505 137.715,312.805 C137.715,244.056 193.436,188.315 262.169,188.315 C330.902,188.315 386.634,244.054 386.634,312.805 Z" id="Shape" fill="#80F1FF"></path>
            <path d="M317.829,312.805 C317.829,343.505 292.884,368.426 262.17,368.426 C231.435,368.426 206.51,343.507 206.51,312.805 C206.51,282.034 231.434,257.105 262.17,257.105 C292.884,257.105 317.829,282.034 317.829,312.805 Z" id="Shape" fill="#6BCEF5"></path>
            <g id="Group" transform="translate(160.000000, 210.000000)" fill="#C0FAFF">
                <path d="M36.79,89.066 L0.021,81.596 C8.31,40.695 40.095,8.897 81.001,0.595 L88.471,37.385 C62.374,42.694 42.115,62.974 36.79,89.066 Z" id="Shape"></path>
                <path d="M141.289,198.324 L126.979,163.613 C143.209,156.934 156.329,143.783 163.019,127.553 L197.73,141.894 C187.279,167.284 166.689,187.846 141.289,198.324 Z" id="Shape"></path>
            </g>
            <path d="M79.941,418.264 C79.941,425.934 73.661,432.224 65.961,432.224 L14.001,432.224 C6.29,432.224 0,425.934 0,418.264 L0,207.294 C0,199.594 6.29,193.293 14.001,193.293 L65.961,193.293 C73.661,193.293 79.941,199.593 79.941,207.294 L79.941,418.264 Z" id="Shape" fill="#34495E"></path>
            <path d="M409.705,175.164 C409.705,177.424 411.546,179.255 413.791,179.255 L453.417,179.255 C455.672,179.255 457.493,177.425 457.493,175.164 L457.493,156.064 C457.493,153.783 455.673,151.955 453.417,151.955 L413.791,151.955 C411.546,151.955 409.705,153.785 409.705,156.064 L409.705,175.164 Z" id="Shape" fill="#F6F8FB"></path>
            <path d="M453.414,151.955 L413.788,151.955 C411.543,151.955 409.702,153.785 409.702,156.064 L409.702,175.164 C409.702,177.424 411.543,179.255 413.788,179.255 L453.414,179.255 C455.669,179.255 457.49,177.425 457.49,175.164 L457.49,156.064 C457.49,153.786 455.67,151.955 453.414,151.955 Z M455.77,175.164 C455.77,176.485 454.715,177.535 453.415,177.535 L413.789,177.535 C412.489,177.535 411.413,176.485 411.413,175.164 L411.413,156.064 C411.413,154.733 412.488,153.655 413.789,153.655 L453.415,153.655 C454.715,153.655 455.77,154.735 455.77,156.064 L455.77,175.164 Z" id="Shape" fill="#AAB5BD"></path>
            <path d="M108.511,165.595 C108.511,171.104 104.062,175.594 98.512,175.594 C93.003,175.594 88.541,171.104 88.541,165.595 C88.541,160.065 93.001,155.596 98.512,155.596 C104.059,155.596 108.511,160.065 108.511,165.595 Z" id="Shape" fill="#FF7059"></path>
            <rect id="Rectangle-path" fill="#5D6D7E" x="237.21" y="101.915" width="49.951" height="15.98"></rect>
            <path d="M347.146,27.444 C347.146,12.573 334.896,0.364 319.905,0.364 L204.416,0.364 C189.466,0.364 177.231,12.575 177.231,27.444 L177.231,74.845 C177.231,89.734 189.465,101.914 204.416,101.914 L319.905,101.914 C334.894,101.914 347.146,89.734 347.146,74.845 L347.146,27.444 L347.146,27.444 Z" id="Shape" fill="#34495E"></path>
            <path d="M204.416,89.916 C196.022,89.916 189.23,83.165 189.23,74.845 L189.23,27.444 C189.23,19.124 196.019,12.384 204.416,12.384 L319.905,12.384 C328.309,12.384 335.145,19.124 335.145,27.444 L335.145,74.845 C335.145,83.165 328.31,89.916 319.905,89.916 L204.416,89.916 Z" id="Shape" fill="#F6F8FB"></path>
            <rect id="Rectangle-path" fill="#5D6D7E" x="87.552" y="133.874" width="21.97" height="4.019"></rect>
            <g id="Group" transform="translate(78.000000, 113.000000)" fill="#34495E">
                <rect id="Rectangle-path" x="0.541" y="0.901" width="39.969" height="19.981"></rect>
                <rect id="Rectangle-path" x="331.702" y="14.648" width="30.71" height="10.24"></rect>
            </g>
            <path d="M342.584,122.285 C340.884,120.874 338.923,119.804 336.724,119.016 C334.538,118.256 332.318,117.895 330.114,117.895 L194.23,117.895 C192.021,117.895 189.809,118.256 187.635,119.016 C185.436,119.807 183.455,120.877 181.724,122.285 L162.258,137.896 L362.112,137.896 L342.584,122.285 Z" id="Shape" fill="#AAB5BD"></path>
        </g>
    </g>
</svg>